PathFileType	4	(X/Y/Z)	P:\Projects\LMB_grand_challenge_database\project_only\opensim\experimental_data\SixthCompetition/DM_ngait_og3_new.trc
DataRate	CameraRate	NumFrames	NumMarkers	Units	OrigDataRate	OrigDataStartFrame	OrigNumFrames
120	120	4	68	mm	120	226	302
Frame#	Time	Sternum			Neck			R_Shoulder			L_Shoulder			Xiphoid			Thoracic			R_Asis			L_Asis			R_Psis			L_Psis			Lumbar			R_Elbow			R_ElbowMedial			R_ShoulderAnterior			R_ShoulderPosterior			R_Wrist			R_Radius			R_Ulna			L_Elbow			L_ElbowMedial			L_ShoulderAnterior			L_ShoulderPosterior			L_Wrist			L_Ulna			L_Radius			L_Thigh_Superior			L_Thigh_Inferior			L_Thigh_Lateral			L_Knee_Lateral			L_Knee_Medial			L_Patella			L_Shank_Superior			L_Shank_Inferior			L_Shank_Lateral			L_Ankle_Lateral			L_Ankle_Medial			R_Thigh_Superior			R_Thigh_Inferior			R_Thigh_Lateral			R_Knee_Lateral			R_Knee_Medial			R_Patella			R_Shank_Superior			R_Shank_Inferior			R_Shank_Lateral			R_Ankle_Lateral			RankleMedial			R_Heel			R_Toe			R_Midfoot_Medial			R_Midfoot_Lateral			R_Hindfoot			R_Midfoot_Superior			R_ToeMedial			R_ToeLateral			L_Heel			L_Toe			L_Midfoot_Medial			L_Midfoot_Lateral			L_Hindfoot			L_Midfoot_Superior			L_ToeMedial			L_ToeLateral			Oglobal			Sacral			Xglobal			Yglobal			Zglobal			
		X1	Y1	Z1	X2	Y2	Z2	X3	Y3	Z3	X4	Y4	Z4	X5	Y5	Z5	X6	Y6	Z6	X7	Y7	Z7	X8	Y8	Z8	X9	Y9	Z9	X10	Y10	Z10	X11	Y11	Z11	X12	Y12	Z12	X13	Y13	Z13	X14	Y14	Z14	X15	Y15	Z15	X16	Y16	Z16	X17	Y17	Z17	X18	Y18	Z18	X19	Y19	Z19	X20	Y20	Z20	X21	Y21	Z21	X22	Y22	Z22	X23	Y23	Z23	X24	Y24	Z24	X25	Y25	Z25	X26	Y26	Z26	X27	Y27	Z27	X28	Y28	Z28	X29	Y29	Z29	X30	Y30	Z30	X31	Y31	Z31	X32	Y32	Z32	X33	Y33	Z33	X34	Y34	Z34	X35	Y35	Z35	X36	Y36	Z36	X37	Y37	Z37	X38	Y38	Z38	X39	Y39	Z39	X40	Y40	Z40	X41	Y41	Z41	X42	Y42	Z42	X43	Y43	Z43	X44	Y44	Z44	X45	Y45	Z45	X46	Y46	Z46	X47	Y47	Z47	X48	Y48	Z48	X49	Y49	Z49	X50	Y50	Z50	X51	Y51	Z51	X52	Y52	Z52	X53	Y53	Z53	X54	Y54	Z54	X55	Y55	Z55	X56	Y56	Z56	X57	Y57	Z57	X58	Y58	Z58	X59	Y59	Z59	X60	Y60	Z60	X61	Y61	Z61	X62	Y62	Z62	X63	Y63	Z63	X64	Y64	Z64	X65	Y65	Z65	X66	Y66	Z66	X67	Y67	Z67	X68	Y68	Z68	

227	4.083333	906.16	1468.95	326.717	1054.76	1372.21	309.897	1003.23	1396.86	483.659	963.4589999999999	1439.59	147.733	1061.98	1210.6	299.754	800.369	1284.89	303.364	972.925	987.826	420.447	982.5069999999999	994.575	143.213	775.234	1036.87	307.538	777.427	1036.43	229.119	779.433	1086.18	271.424	983.74	1074.55	556.104	-0	0	0	-0	0	0	-0	0	0	1074.85	808.756	517.498	1069.27	823.45	473.103	1030.65	816.696	534.322	933.301	1117.76	12.5729	-0	0	0	-0	0	0	-0	0	0	981.754	850.847	17.5428	950.033	873.079	-16.3311	958.301	866.774	59.1092	941.384	823.7670000000001	98.5532	1021.25	612.227	104.838	1048.88	709.5599999999999	131.534	-0	0	0	-0	0	0	1073.49	507.284	147.359	956.111	477.402	110.042	767.455	293.431	149.134	901.6079999999999	352.003	190.386	-0	0	0	-0	0	0	903.0890000000001	802.222	426.61	927.268	592.438	386.58	987.921	720.636	413.794	-0	0	0	-0	0	0	1013.26	512.573	316.58	890.018	398.52	391.357	878.0170000000001	190.638	368.894	952.429	314.745	306.425	-0	0	0	-0	0	0	790.708	63.3331	308.896	1090.1	56.1367	313.877	1013.69	33.3935	262.005	1000.29	29.4948	378.442	890.172	28.5715	363.283	953.99	120.425	316.556	1056.18	43.19	269.448	1049.08	41.8694	361.141	652.773	251.848	230.119	853.449	41.4921	165.323	796.829	77.4602	232.232	761.303	93.3479	124.568	684.604	161.949	156.503	804.569	180.788	182.362	822.87	49.7865	215.59	803.693	57.8776	123.273	-0	0	0	776.331	1036.65	268.328	-200	0	0	-0	0	200	-0	200	0	
228	4.091667	913.95	1469.57	326.491	1062.44	1373.1	309.489	1011.56	1398.12	483.258	970.3099999999999	1440.64	146.589	1069.72	1211.2	299.599	808.104	1285.61	303.593	980.787	988.385	420.377	989.909	994.788	143.127	783.003	1037.73	307.764	785.1	1037.31	229.344	787.284	1087.05	271.575	993.619	1075.54	555.795	-0	0	0	-0	0	0	-0	0	0	1086.47	810.236	515.473	1080.56	825.8440000000001	471.845	1043.48	818.727	534.14	934.098	1119.18	11.2193	-0	0	0	-0	0	0	-0	0	0	980.063	851.883	14.2681	947.417	874.622	-18.8337	958.105	867.809	56.4376	950.247	825.139	98.44799999999999	1033.67	614.864	105.087	1059.88	712.346	132.521	-0	0	0	-0	0	0	1086.75	510.774	147.248	971.0650000000001	478.219	109.205	787.389	288.546	146.214	921.273	351.677	189.227	-0	0	0	-0	0	0	910.064	802.625	426.656	930.8869999999999	592.7809999999999	386.697	993.822	720.3150000000001	413.586	-0	0	0	-0	0	0	1015.95	512.062	316.553	891.825	398.697	391.452	878.621	190.989	368.973	953.716	314.69	306.435	-0	0	0	-0	0	0	790.8	63.5902	308.853	1090.28	55.9072	314.032	1013.75	33.2616	262.066	1000.28	29.3306	378.495	890.241	28.5951	363.313	954.0839999999999	120.342	316.623	1056.18	43.0756	269.409	1049.04	41.7761	361.094	672.11	242.44	225.465	883.328	40.9046	165.296	823.957	74.8788	231.228	789.4829999999999	88.3467	122.894	709.52	153.598	153.108	827.914	178.029	180.628	851.787	48.3386	215.316	833.737	54.9034	122.41	-0	0	0	784.051	1037.52	268.554	-200	0	0	-0	0	200	-0	200	0	
229	4.1	921.585	1470.23	326.186	1070.34	1373.91	309.118	1019.6	1399.06	482.764	977.341	1441.14	146.137	1077.62	1211.79	299.366	815.917	1286.11	303.807	988.299	989.3	420.888	997.818	995.327	142.938	790.734	1038.47	307.823	793.144	1038.1	229.341	795.0549999999999	1087.86	271.338	1003.55	1076.57	555.521	-0	0	0	-0	0	0	-0	0	0	1098.71	812.542	514.86	1092.18	827.33	470.662	1055.74	820.553	533.5599999999999	934.919	1120.54	10.0843	-0	0	0	-0	0	0	-0	0	0	978.504	852.701	11.0761	945.114	875.936	-20.8312	957.929	869.1369999999999	53.9377	958.192	826.086	97.8586	1045.65	617.269	105.267	1070.62	714.813	133.589	-0	0	0	-0	0	0	1099.68	514.299	147.174	985.691	479.13	108.481	807.917	283.631	142.879	937.206	350.728	187.767	-0	0	0	-0	0	0	917.548	803.529	426.741	934.151	593.056	387.224	998.3579999999999	719.987	413.194	-0	0	0	-0	0	0	1018.17	511.318	316.785	893.847	398.825	391.603	879.222	191.291	369.035	955.095	314.534	306.76	-0	0	0	-0	0	0	790.158	63.0956	308.886	1090.3	55.7698	314	1013.13	32.9016	262.131	999.668	29.0826	378.564	890.2910000000001	28.5853	363.333	954.253	120.289	316.637	1056.24	42.9569	269.407	1049.18	41.6843	361.092	691.686	232.866	220.62	913.861	40.9891	165.267	851.168	72.7984	231.185	817.92	83.1776	122.13	735.131	144.981	150.179	852.105	174.975	178.952	880.895	47.1426	214.86	864.253	52.1491	121.486	-0	0	0	791.939	1038.29	268.582	-200	0	0	-0	0	200	-0	200	0	
230	4.108333	929.278	1470.72	325.945	1077.88	1374.55	308.452	1027.79	1400.3	482.515	984.298	1441.57	145.716	1085.39	1212.13	298.997	823.741	1286.6	303.998	996.264	989.609	420.672	1005.37	995.784	142.944	798.557	1039.08	307.991	800.879	1038.75	229.677	802.9109999999999	1088.48	271.582	1013.39	1077.58	555.1900000000001	-0	0	0	-0	0	0	-0	0	0	1110.46	814.027	513.5549999999999	1103.78	829.2809999999999	469.669	1067.99	822.232	532.956	935.0599999999999	1121.8	9.48448	-0	0	0	-0	0	0	-0	0	0	977.188	853.6660000000001	7.97172	943.15	877.2859999999999	-22.741	957.353	869.737	50.4269	966.653	827.296	97.4139	1057.39	619.4349999999999	105.816	1081.27	717.115	134.966	-0	0	0	-0	0	0	1112.46	517.61	147.558	1000.16	479.676	107.83	828.136	277.739	140.227	954.258	349.357	186.481	-0	0	0	-0	0	0	924.814	803.856	426.843	937.939	593.105	387.476	1005	719.47	412.136	-0	0	0	-0	0	0	1020.73	510.675	317.062	895.7569999999999	399.158	391.813	879.918	191.563	369.192	956.698	314.8	306.897	-0	0	0	-0	0	0	790.4930000000001	63.698	309.181	1090.93	56.8669	314.813	1013.3	33.0066	261.957	1000.03	28.9497	378.404	890.324	28.6226	363.396	954.337	120.28	316.754	1056.34	42.8545	269.411	1049.18	41.5552	361.17	712.477	222.464	215.853	944.249	41.1126	164.958	879.193	70.2086	229.705	846.946	78.2377	120.152	761.27	136.072	146.517	875.831	171.998	176.749	910.2859999999999	45.6928	214.101	894.972	49.5819	120.354	-0	0	0	799.718	1038.91	268.834	-200	0	0	-0	0	200	-0	200	0	
